<mxfile host="Electron" agent="Mozilla/5.0 (X11; Linux x86_64) AppleWebKit/537.36 (KHTML, like Gecko) draw.io/24.7.17 Chrome/128.0.6613.186 Electron/32.2.5 Safari/537.36" version="24.7.17">
  <diagram id="C5RBs43oDa-KdzZeNtuy" name="Page-1">
    <mxGraphModel dx="1311" dy="385" grid="1" gridSize="10" guides="1" tooltips="1" connect="1" arrows="1" fold="1" page="1" pageScale="1" pageWidth="827" pageHeight="1169" math="0" shadow="0">
      <root>
        <mxCell id="WIyWlLk6GJQsqaUBKTNV-0" />
        <mxCell id="WIyWlLk6GJQsqaUBKTNV-1" parent="WIyWlLk6GJQsqaUBKTNV-0" />
        <mxCell id="kPHA2BXEv4-0aPbifPxd-3" value="" style="edgeStyle=orthogonalEdgeStyle;rounded=0;orthogonalLoop=1;jettySize=auto;html=1;" edge="1" parent="WIyWlLk6GJQsqaUBKTNV-1" source="kPHA2BXEv4-0aPbifPxd-0" target="kPHA2BXEv4-0aPbifPxd-1">
          <mxGeometry relative="1" as="geometry" />
        </mxCell>
        <mxCell id="kPHA2BXEv4-0aPbifPxd-0" value="Начало" style="rounded=1;whiteSpace=wrap;html=1;arcSize=50;" vertex="1" parent="WIyWlLk6GJQsqaUBKTNV-1">
          <mxGeometry x="110" width="120" height="30" as="geometry" />
        </mxCell>
        <mxCell id="kPHA2BXEv4-0aPbifPxd-5" value="" style="edgeStyle=orthogonalEdgeStyle;rounded=0;orthogonalLoop=1;jettySize=auto;html=1;" edge="1" parent="WIyWlLk6GJQsqaUBKTNV-1" source="kPHA2BXEv4-0aPbifPxd-1" target="kPHA2BXEv4-0aPbifPxd-4">
          <mxGeometry relative="1" as="geometry" />
        </mxCell>
        <mxCell id="kPHA2BXEv4-0aPbifPxd-1" value="Ввод n" style="shape=parallelogram;perimeter=parallelogramPerimeter;whiteSpace=wrap;html=1;fixedSize=1;" vertex="1" parent="WIyWlLk6GJQsqaUBKTNV-1">
          <mxGeometry x="110" y="60" width="120" height="60" as="geometry" />
        </mxCell>
        <mxCell id="kPHA2BXEv4-0aPbifPxd-7" value="" style="edgeStyle=orthogonalEdgeStyle;rounded=0;orthogonalLoop=1;jettySize=auto;html=1;" edge="1" parent="WIyWlLk6GJQsqaUBKTNV-1" source="kPHA2BXEv4-0aPbifPxd-4" target="kPHA2BXEv4-0aPbifPxd-6">
          <mxGeometry relative="1" as="geometry" />
        </mxCell>
        <mxCell id="kPHA2BXEv4-0aPbifPxd-4" value="n == 0" style="rhombus;whiteSpace=wrap;html=1;" vertex="1" parent="WIyWlLk6GJQsqaUBKTNV-1">
          <mxGeometry x="110" y="160" width="120" height="60" as="geometry" />
        </mxCell>
        <mxCell id="kPHA2BXEv4-0aPbifPxd-9" value="" style="edgeStyle=orthogonalEdgeStyle;rounded=0;orthogonalLoop=1;jettySize=auto;html=1;" edge="1" parent="WIyWlLk6GJQsqaUBKTNV-1" source="kPHA2BXEv4-0aPbifPxd-6" target="kPHA2BXEv4-0aPbifPxd-8">
          <mxGeometry relative="1" as="geometry" />
        </mxCell>
        <mxCell id="kPHA2BXEv4-0aPbifPxd-6" value="Справедливо что угодно" style="shape=parallelogram;perimeter=parallelogramPerimeter;whiteSpace=wrap;html=1;fixedSize=1;" vertex="1" parent="WIyWlLk6GJQsqaUBKTNV-1">
          <mxGeometry x="110" y="260" width="120" height="60" as="geometry" />
        </mxCell>
        <mxCell id="kPHA2BXEv4-0aPbifPxd-8" value="Конец" style="rounded=1;whiteSpace=wrap;html=1;arcSize=50;" vertex="1" parent="WIyWlLk6GJQsqaUBKTNV-1">
          <mxGeometry x="110" y="360" width="120" height="30" as="geometry" />
        </mxCell>
        <mxCell id="kPHA2BXEv4-0aPbifPxd-11" value="" style="endArrow=none;html=1;rounded=0;" edge="1" parent="WIyWlLk6GJQsqaUBKTNV-1">
          <mxGeometry width="50" height="50" relative="1" as="geometry">
            <mxPoint x="230" y="190" as="sourcePoint" />
            <mxPoint x="290" y="190" as="targetPoint" />
          </mxGeometry>
        </mxCell>
        <mxCell id="kPHA2BXEv4-0aPbifPxd-12" value="" style="endArrow=none;html=1;rounded=0;" edge="1" parent="WIyWlLk6GJQsqaUBKTNV-1">
          <mxGeometry width="50" height="50" relative="1" as="geometry">
            <mxPoint x="290" y="421.6666666666667" as="sourcePoint" />
            <mxPoint x="290" y="190" as="targetPoint" />
          </mxGeometry>
        </mxCell>
        <mxCell id="kPHA2BXEv4-0aPbifPxd-14" value="" style="endArrow=none;html=1;rounded=0;" edge="1" parent="WIyWlLk6GJQsqaUBKTNV-1">
          <mxGeometry width="50" height="50" relative="1" as="geometry">
            <mxPoint x="170" y="420" as="sourcePoint" />
            <mxPoint x="290" y="420" as="targetPoint" />
          </mxGeometry>
        </mxCell>
        <mxCell id="kPHA2BXEv4-0aPbifPxd-15" value="" style="endArrow=classic;html=1;rounded=0;" edge="1" parent="WIyWlLk6GJQsqaUBKTNV-1">
          <mxGeometry width="50" height="50" relative="1" as="geometry">
            <mxPoint x="170" y="420" as="sourcePoint" />
            <mxPoint x="170" y="460" as="targetPoint" />
          </mxGeometry>
        </mxCell>
        <mxCell id="kPHA2BXEv4-0aPbifPxd-22" value="" style="edgeStyle=orthogonalEdgeStyle;rounded=0;orthogonalLoop=1;jettySize=auto;html=1;" edge="1" parent="WIyWlLk6GJQsqaUBKTNV-1" source="kPHA2BXEv4-0aPbifPxd-16" target="kPHA2BXEv4-0aPbifPxd-21">
          <mxGeometry relative="1" as="geometry" />
        </mxCell>
        <mxCell id="kPHA2BXEv4-0aPbifPxd-16" value="i = 0&lt;div&gt;i &amp;lt; n&lt;/div&gt;&lt;div&gt;++i&lt;/div&gt;" style="strokeWidth=2;html=1;shape=mxgraph.flowchart.loop_limit;whiteSpace=wrap;" vertex="1" parent="WIyWlLk6GJQsqaUBKTNV-1">
          <mxGeometry x="110" y="560" width="120" height="70" as="geometry" />
        </mxCell>
        <mxCell id="kPHA2BXEv4-0aPbifPxd-20" value="" style="edgeStyle=orthogonalEdgeStyle;rounded=0;orthogonalLoop=1;jettySize=auto;html=1;" edge="1" parent="WIyWlLk6GJQsqaUBKTNV-1" source="kPHA2BXEv4-0aPbifPxd-19" target="kPHA2BXEv4-0aPbifPxd-16">
          <mxGeometry relative="1" as="geometry" />
        </mxCell>
        <mxCell id="kPHA2BXEv4-0aPbifPxd-19" value="&lt;span style=&quot;color: rgb(240, 240, 240); font-family: Helvetica; font-size: 12px; font-style: normal; font-variant-ligatures: normal; font-variant-caps: normal; font-weight: 400; letter-spacing: normal; orphans: 2; text-align: center; text-indent: 0px; text-transform: none; widows: 2; word-spacing: 0px; -webkit-text-stroke-width: 0px; white-space: normal; background-color: rgb(27, 29, 30); text-decoration-thickness: initial; text-decoration-style: initial; text-decoration-color: initial; display: inline !important; float: none;&quot;&gt;strings =&lt;/span&gt;&lt;div style=&quot;forced-color-adjust: none; border-color: rgb(0, 0, 0); color: rgb(240, 240, 240); font-family: Helvetica; font-size: 12px; font-style: normal; font-variant-ligatures: normal; font-variant-caps: normal; font-weight: 400; letter-spacing: normal; orphans: 2; text-align: center; text-indent: 0px; text-transform: none; widows: 2; word-spacing: 0px; -webkit-text-stroke-width: 0px; white-space: normal; background-color: rgb(27, 29, 30); text-decoration-thickness: initial; text-decoration-style: initial; text-decoration-color: initial;&quot;&gt;new char*[n]&lt;/div&gt;" style="rounded=0;whiteSpace=wrap;html=1;" vertex="1" parent="WIyWlLk6GJQsqaUBKTNV-1">
          <mxGeometry x="110" y="460" width="120" height="60" as="geometry" />
        </mxCell>
        <mxCell id="kPHA2BXEv4-0aPbifPxd-26" value="" style="edgeStyle=orthogonalEdgeStyle;rounded=0;orthogonalLoop=1;jettySize=auto;html=1;" edge="1" parent="WIyWlLk6GJQsqaUBKTNV-1" source="kPHA2BXEv4-0aPbifPxd-21" target="kPHA2BXEv4-0aPbifPxd-25">
          <mxGeometry relative="1" as="geometry" />
        </mxCell>
        <mxCell id="kPHA2BXEv4-0aPbifPxd-21" value="Ввод&lt;div&gt;strings[i]&lt;/div&gt;" style="shape=parallelogram;perimeter=parallelogramPerimeter;whiteSpace=wrap;html=1;fixedSize=1;strokeWidth=2;" vertex="1" parent="WIyWlLk6GJQsqaUBKTNV-1">
          <mxGeometry x="110" y="670" width="120" height="60" as="geometry" />
        </mxCell>
        <mxCell id="kPHA2BXEv4-0aPbifPxd-32" value="" style="edgeStyle=orthogonalEdgeStyle;rounded=0;orthogonalLoop=1;jettySize=auto;html=1;" edge="1" parent="WIyWlLk6GJQsqaUBKTNV-1" source="kPHA2BXEv4-0aPbifPxd-25" target="kPHA2BXEv4-0aPbifPxd-28">
          <mxGeometry relative="1" as="geometry" />
        </mxCell>
        <mxCell id="kPHA2BXEv4-0aPbifPxd-25" value="" style="strokeWidth=2;html=1;shape=mxgraph.flowchart.loop_limit;whiteSpace=wrap;direction=west;" vertex="1" parent="WIyWlLk6GJQsqaUBKTNV-1">
          <mxGeometry x="110" y="770" width="120" height="70" as="geometry" />
        </mxCell>
        <mxCell id="kPHA2BXEv4-0aPbifPxd-34" value="" style="edgeStyle=orthogonalEdgeStyle;rounded=0;orthogonalLoop=1;jettySize=auto;html=1;" edge="1" parent="WIyWlLk6GJQsqaUBKTNV-1" source="kPHA2BXEv4-0aPbifPxd-28" target="kPHA2BXEv4-0aPbifPxd-33">
          <mxGeometry relative="1" as="geometry" />
        </mxCell>
        <mxCell id="kPHA2BXEv4-0aPbifPxd-28" value="i = 0&lt;div&gt;i &amp;lt; n&lt;/div&gt;&lt;div&gt;++i&lt;/div&gt;" style="strokeWidth=2;html=1;shape=mxgraph.flowchart.loop_limit;whiteSpace=wrap;" vertex="1" parent="WIyWlLk6GJQsqaUBKTNV-1">
          <mxGeometry x="110" y="880" width="120" height="70" as="geometry" />
        </mxCell>
        <mxCell id="kPHA2BXEv4-0aPbifPxd-47" value="" style="edgeStyle=orthogonalEdgeStyle;rounded=0;orthogonalLoop=1;jettySize=auto;html=1;" edge="1" parent="WIyWlLk6GJQsqaUBKTNV-1" source="kPHA2BXEv4-0aPbifPxd-31" target="kPHA2BXEv4-0aPbifPxd-43">
          <mxGeometry relative="1" as="geometry" />
        </mxCell>
        <mxCell id="kPHA2BXEv4-0aPbifPxd-31" value="" style="strokeWidth=2;html=1;shape=mxgraph.flowchart.loop_limit;whiteSpace=wrap;direction=west;" vertex="1" parent="WIyWlLk6GJQsqaUBKTNV-1">
          <mxGeometry x="110" y="1210" width="120" height="70" as="geometry" />
        </mxCell>
        <mxCell id="kPHA2BXEv4-0aPbifPxd-37" value="" style="edgeStyle=orthogonalEdgeStyle;rounded=0;orthogonalLoop=1;jettySize=auto;html=1;" edge="1" parent="WIyWlLk6GJQsqaUBKTNV-1" source="kPHA2BXEv4-0aPbifPxd-33" target="kPHA2BXEv4-0aPbifPxd-36">
          <mxGeometry relative="1" as="geometry" />
        </mxCell>
        <mxCell id="kPHA2BXEv4-0aPbifPxd-33" value="IsStringSymmetrical&lt;div&gt;(strings[i])&lt;/div&gt;" style="rhombus;whiteSpace=wrap;html=1;" vertex="1" parent="WIyWlLk6GJQsqaUBKTNV-1">
          <mxGeometry x="90" y="980" width="160" height="80" as="geometry" />
        </mxCell>
        <mxCell id="kPHA2BXEv4-0aPbifPxd-40" value="" style="edgeStyle=orthogonalEdgeStyle;rounded=0;orthogonalLoop=1;jettySize=auto;html=1;" edge="1" parent="WIyWlLk6GJQsqaUBKTNV-1" source="kPHA2BXEv4-0aPbifPxd-36" target="kPHA2BXEv4-0aPbifPxd-31">
          <mxGeometry relative="1" as="geometry" />
        </mxCell>
        <mxCell id="kPHA2BXEv4-0aPbifPxd-36" value="Вывод&lt;div&gt;strings[i]&lt;/div&gt;" style="shape=parallelogram;perimeter=parallelogramPerimeter;whiteSpace=wrap;html=1;fixedSize=1;strokeWidth=2;" vertex="1" parent="WIyWlLk6GJQsqaUBKTNV-1">
          <mxGeometry x="110" y="1090" width="120" height="60" as="geometry" />
        </mxCell>
        <mxCell id="kPHA2BXEv4-0aPbifPxd-38" value="" style="endArrow=none;html=1;rounded=0;" edge="1" parent="WIyWlLk6GJQsqaUBKTNV-1">
          <mxGeometry width="50" height="50" relative="1" as="geometry">
            <mxPoint x="250" y="1020" as="sourcePoint" />
            <mxPoint x="310" y="1020" as="targetPoint" />
          </mxGeometry>
        </mxCell>
        <mxCell id="kPHA2BXEv4-0aPbifPxd-39" value="" style="endArrow=none;html=1;rounded=0;" edge="1" parent="WIyWlLk6GJQsqaUBKTNV-1">
          <mxGeometry width="50" height="50" relative="1" as="geometry">
            <mxPoint x="310" y="1190" as="sourcePoint" />
            <mxPoint x="310" y="1020" as="targetPoint" />
          </mxGeometry>
        </mxCell>
        <mxCell id="kPHA2BXEv4-0aPbifPxd-41" value="" style="endArrow=classic;html=1;rounded=0;" edge="1" parent="WIyWlLk6GJQsqaUBKTNV-1">
          <mxGeometry width="50" height="50" relative="1" as="geometry">
            <mxPoint x="310" y="1190" as="sourcePoint" />
            <mxPoint x="170" y="1190" as="targetPoint" />
          </mxGeometry>
        </mxCell>
        <mxCell id="kPHA2BXEv4-0aPbifPxd-42" value="" style="edgeStyle=orthogonalEdgeStyle;rounded=0;orthogonalLoop=1;jettySize=auto;html=1;" edge="1" parent="WIyWlLk6GJQsqaUBKTNV-1" source="kPHA2BXEv4-0aPbifPxd-43">
          <mxGeometry relative="1" as="geometry">
            <mxPoint x="170" y="1430" as="targetPoint" />
          </mxGeometry>
        </mxCell>
        <mxCell id="kPHA2BXEv4-0aPbifPxd-43" value="i = 0&lt;div&gt;i &amp;lt; n&lt;/div&gt;&lt;div&gt;++i&lt;/div&gt;" style="strokeWidth=2;html=1;shape=mxgraph.flowchart.loop_limit;whiteSpace=wrap;" vertex="1" parent="WIyWlLk6GJQsqaUBKTNV-1">
          <mxGeometry x="110" y="1320" width="120" height="70" as="geometry" />
        </mxCell>
        <mxCell id="kPHA2BXEv4-0aPbifPxd-44" value="" style="edgeStyle=orthogonalEdgeStyle;rounded=0;orthogonalLoop=1;jettySize=auto;html=1;" edge="1" parent="WIyWlLk6GJQsqaUBKTNV-1" target="kPHA2BXEv4-0aPbifPxd-46">
          <mxGeometry relative="1" as="geometry">
            <mxPoint x="170" y="1490" as="sourcePoint" />
          </mxGeometry>
        </mxCell>
        <mxCell id="kPHA2BXEv4-0aPbifPxd-49" value="" style="edgeStyle=orthogonalEdgeStyle;rounded=0;orthogonalLoop=1;jettySize=auto;html=1;" edge="1" parent="WIyWlLk6GJQsqaUBKTNV-1" source="kPHA2BXEv4-0aPbifPxd-46" target="kPHA2BXEv4-0aPbifPxd-48">
          <mxGeometry relative="1" as="geometry" />
        </mxCell>
        <mxCell id="kPHA2BXEv4-0aPbifPxd-46" value="" style="strokeWidth=2;html=1;shape=mxgraph.flowchart.loop_limit;whiteSpace=wrap;direction=west;" vertex="1" parent="WIyWlLk6GJQsqaUBKTNV-1">
          <mxGeometry x="110" y="1530" width="120" height="70" as="geometry" />
        </mxCell>
        <mxCell id="kPHA2BXEv4-0aPbifPxd-52" value="" style="edgeStyle=orthogonalEdgeStyle;rounded=0;orthogonalLoop=1;jettySize=auto;html=1;" edge="1" parent="WIyWlLk6GJQsqaUBKTNV-1" source="kPHA2BXEv4-0aPbifPxd-48" target="kPHA2BXEv4-0aPbifPxd-51">
          <mxGeometry relative="1" as="geometry" />
        </mxCell>
        <mxCell id="kPHA2BXEv4-0aPbifPxd-48" value="delete[] strings" style="whiteSpace=wrap;html=1;strokeWidth=2;" vertex="1" parent="WIyWlLk6GJQsqaUBKTNV-1">
          <mxGeometry x="110" y="1640" width="120" height="60" as="geometry" />
        </mxCell>
        <mxCell id="kPHA2BXEv4-0aPbifPxd-50" value="delete[] strings[i]" style="rounded=0;whiteSpace=wrap;html=1;" vertex="1" parent="WIyWlLk6GJQsqaUBKTNV-1">
          <mxGeometry x="110" y="1430" width="120" height="60" as="geometry" />
        </mxCell>
        <mxCell id="kPHA2BXEv4-0aPbifPxd-54" value="" style="edgeStyle=orthogonalEdgeStyle;rounded=0;orthogonalLoop=1;jettySize=auto;html=1;" edge="1" parent="WIyWlLk6GJQsqaUBKTNV-1" source="kPHA2BXEv4-0aPbifPxd-51" target="kPHA2BXEv4-0aPbifPxd-53">
          <mxGeometry relative="1" as="geometry" />
        </mxCell>
        <mxCell id="kPHA2BXEv4-0aPbifPxd-51" value="delete[] buf" style="whiteSpace=wrap;html=1;strokeWidth=2;" vertex="1" parent="WIyWlLk6GJQsqaUBKTNV-1">
          <mxGeometry x="110" y="1740" width="120" height="60" as="geometry" />
        </mxCell>
        <mxCell id="kPHA2BXEv4-0aPbifPxd-53" value="Конец" style="rounded=1;whiteSpace=wrap;html=1;arcSize=50;" vertex="1" parent="WIyWlLk6GJQsqaUBKTNV-1">
          <mxGeometry x="110" y="1840" width="120" height="30" as="geometry" />
        </mxCell>
        <mxCell id="kPHA2BXEv4-0aPbifPxd-57" value="" style="edgeStyle=orthogonalEdgeStyle;rounded=0;orthogonalLoop=1;jettySize=auto;html=1;" edge="1" parent="WIyWlLk6GJQsqaUBKTNV-1" source="kPHA2BXEv4-0aPbifPxd-55" target="kPHA2BXEv4-0aPbifPxd-56">
          <mxGeometry relative="1" as="geometry" />
        </mxCell>
        <mxCell id="kPHA2BXEv4-0aPbifPxd-55" value="IsStringSymmetrical" style="rounded=1;whiteSpace=wrap;html=1;arcSize=50;" vertex="1" parent="WIyWlLk6GJQsqaUBKTNV-1">
          <mxGeometry x="490" width="120" height="30" as="geometry" />
        </mxCell>
        <mxCell id="kPHA2BXEv4-0aPbifPxd-59" value="" style="edgeStyle=orthogonalEdgeStyle;rounded=0;orthogonalLoop=1;jettySize=auto;html=1;" edge="1" parent="WIyWlLk6GJQsqaUBKTNV-1" source="kPHA2BXEv4-0aPbifPxd-56" target="kPHA2BXEv4-0aPbifPxd-58">
          <mxGeometry relative="1" as="geometry" />
        </mxCell>
        <mxCell id="kPHA2BXEv4-0aPbifPxd-56" value="Ввод str" style="shape=parallelogram;perimeter=parallelogramPerimeter;whiteSpace=wrap;html=1;fixedSize=1;" vertex="1" parent="WIyWlLk6GJQsqaUBKTNV-1">
          <mxGeometry x="490" y="60" width="120" height="60" as="geometry" />
        </mxCell>
        <mxCell id="kPHA2BXEv4-0aPbifPxd-61" value="" style="edgeStyle=orthogonalEdgeStyle;rounded=0;orthogonalLoop=1;jettySize=auto;html=1;" edge="1" parent="WIyWlLk6GJQsqaUBKTNV-1" source="kPHA2BXEv4-0aPbifPxd-58" target="kPHA2BXEv4-0aPbifPxd-60">
          <mxGeometry relative="1" as="geometry" />
        </mxCell>
        <mxCell id="kPHA2BXEv4-0aPbifPxd-58" value="length = 0" style="whiteSpace=wrap;html=1;" vertex="1" parent="WIyWlLk6GJQsqaUBKTNV-1">
          <mxGeometry x="490" y="160" width="120" height="60" as="geometry" />
        </mxCell>
        <mxCell id="kPHA2BXEv4-0aPbifPxd-63" value="" style="edgeStyle=orthogonalEdgeStyle;rounded=0;orthogonalLoop=1;jettySize=auto;html=1;" edge="1" parent="WIyWlLk6GJQsqaUBKTNV-1" source="kPHA2BXEv4-0aPbifPxd-60" target="kPHA2BXEv4-0aPbifPxd-62">
          <mxGeometry relative="1" as="geometry" />
        </mxCell>
        <mxCell id="kPHA2BXEv4-0aPbifPxd-60" value="length != &#39;\0\&lt;div&gt;++length&lt;/div&gt;" style="strokeWidth=2;html=1;shape=mxgraph.flowchart.loop_limit;whiteSpace=wrap;" vertex="1" parent="WIyWlLk6GJQsqaUBKTNV-1">
          <mxGeometry x="490" y="255" width="120" height="70" as="geometry" />
        </mxCell>
        <mxCell id="kPHA2BXEv4-0aPbifPxd-65" value="" style="edgeStyle=orthogonalEdgeStyle;rounded=0;orthogonalLoop=1;jettySize=auto;html=1;" edge="1" parent="WIyWlLk6GJQsqaUBKTNV-1" source="kPHA2BXEv4-0aPbifPxd-62" target="kPHA2BXEv4-0aPbifPxd-64">
          <mxGeometry relative="1" as="geometry" />
        </mxCell>
        <mxCell id="kPHA2BXEv4-0aPbifPxd-62" value="" style="strokeWidth=2;html=1;shape=mxgraph.flowchart.loop_limit;whiteSpace=wrap;direction=west;" vertex="1" parent="WIyWlLk6GJQsqaUBKTNV-1">
          <mxGeometry x="490" y="360" width="120" height="70" as="geometry" />
        </mxCell>
        <mxCell id="kPHA2BXEv4-0aPbifPxd-67" value="" style="edgeStyle=orthogonalEdgeStyle;rounded=0;orthogonalLoop=1;jettySize=auto;html=1;" edge="1" parent="WIyWlLk6GJQsqaUBKTNV-1" source="kPHA2BXEv4-0aPbifPxd-64" target="kPHA2BXEv4-0aPbifPxd-66">
          <mxGeometry relative="1" as="geometry" />
        </mxCell>
        <mxCell id="kPHA2BXEv4-0aPbifPxd-64" value="i = 0&lt;div&gt;i &amp;lt; length&lt;/div&gt;" style="strokeWidth=2;html=1;shape=mxgraph.flowchart.loop_limit;whiteSpace=wrap;" vertex="1" parent="WIyWlLk6GJQsqaUBKTNV-1">
          <mxGeometry x="490" y="470" width="120" height="70" as="geometry" />
        </mxCell>
        <mxCell id="kPHA2BXEv4-0aPbifPxd-69" value="" style="edgeStyle=orthogonalEdgeStyle;rounded=0;orthogonalLoop=1;jettySize=auto;html=1;" edge="1" parent="WIyWlLk6GJQsqaUBKTNV-1" source="kPHA2BXEv4-0aPbifPxd-66" target="kPHA2BXEv4-0aPbifPxd-68">
          <mxGeometry relative="1" as="geometry" />
        </mxCell>
        <mxCell id="kPHA2BXEv4-0aPbifPxd-66" value="a = GetCodepoint(str, i)" style="whiteSpace=wrap;html=1;strokeWidth=2;" vertex="1" parent="WIyWlLk6GJQsqaUBKTNV-1">
          <mxGeometry x="490" y="584.5" width="120" height="60" as="geometry" />
        </mxCell>
        <mxCell id="kPHA2BXEv4-0aPbifPxd-71" value="" style="edgeStyle=orthogonalEdgeStyle;rounded=0;orthogonalLoop=1;jettySize=auto;html=1;" edge="1" parent="WIyWlLk6GJQsqaUBKTNV-1" source="kPHA2BXEv4-0aPbifPxd-68" target="kPHA2BXEv4-0aPbifPxd-70">
          <mxGeometry relative="1" as="geometry" />
        </mxCell>
        <mxCell id="kPHA2BXEv4-0aPbifPxd-68" value="j = length - i" style="whiteSpace=wrap;html=1;strokeWidth=2;" vertex="1" parent="WIyWlLk6GJQsqaUBKTNV-1">
          <mxGeometry x="490" y="680" width="120" height="60" as="geometry" />
        </mxCell>
        <mxCell id="kPHA2BXEv4-0aPbifPxd-73" value="" style="edgeStyle=orthogonalEdgeStyle;rounded=0;orthogonalLoop=1;jettySize=auto;html=1;" edge="1" parent="WIyWlLk6GJQsqaUBKTNV-1" source="kPHA2BXEv4-0aPbifPxd-70" target="kPHA2BXEv4-0aPbifPxd-72">
          <mxGeometry relative="1" as="geometry" />
        </mxCell>
        <mxCell id="kPHA2BXEv4-0aPbifPxd-70" value="&lt;span style=&quot;color: rgb(240, 240, 240); font-family: Helvetica; font-size: 12px; font-style: normal; font-variant-ligatures: normal; font-variant-caps: normal; font-weight: 400; letter-spacing: normal; orphans: 2; text-align: center; text-indent: 0px; text-transform: none; widows: 2; word-spacing: 0px; -webkit-text-stroke-width: 0px; white-space: normal; background-color: rgb(27, 29, 30); text-decoration-thickness: initial; text-decoration-style: initial; text-decoration-color: initial; display: inline !important; float: none;&quot;&gt;b = GetCodepoint(str, j)&lt;/span&gt;" style="whiteSpace=wrap;html=1;strokeWidth=2;" vertex="1" parent="WIyWlLk6GJQsqaUBKTNV-1">
          <mxGeometry x="490" y="775" width="120" height="60" as="geometry" />
        </mxCell>
        <mxCell id="kPHA2BXEv4-0aPbifPxd-77" value="" style="edgeStyle=orthogonalEdgeStyle;rounded=0;orthogonalLoop=1;jettySize=auto;html=1;" edge="1" parent="WIyWlLk6GJQsqaUBKTNV-1" source="kPHA2BXEv4-0aPbifPxd-72" target="kPHA2BXEv4-0aPbifPxd-76">
          <mxGeometry relative="1" as="geometry" />
        </mxCell>
        <mxCell id="kPHA2BXEv4-0aPbifPxd-72" value="a != b" style="rhombus;whiteSpace=wrap;html=1;" vertex="1" parent="WIyWlLk6GJQsqaUBKTNV-1">
          <mxGeometry x="490" y="870" width="120" height="60" as="geometry" />
        </mxCell>
        <mxCell id="kPHA2BXEv4-0aPbifPxd-80" value="" style="edgeStyle=orthogonalEdgeStyle;rounded=0;orthogonalLoop=1;jettySize=auto;html=1;" edge="1" parent="WIyWlLk6GJQsqaUBKTNV-1" source="kPHA2BXEv4-0aPbifPxd-76" target="kPHA2BXEv4-0aPbifPxd-79">
          <mxGeometry relative="1" as="geometry" />
        </mxCell>
        <mxCell id="kPHA2BXEv4-0aPbifPxd-76" value="false" style="shape=parallelogram;perimeter=parallelogramPerimeter;whiteSpace=wrap;html=1;fixedSize=1;" vertex="1" parent="WIyWlLk6GJQsqaUBKTNV-1">
          <mxGeometry x="490" y="970" width="120" height="60" as="geometry" />
        </mxCell>
        <mxCell id="kPHA2BXEv4-0aPbifPxd-79" value="Конец" style="rounded=1;whiteSpace=wrap;html=1;arcSize=50;" vertex="1" parent="WIyWlLk6GJQsqaUBKTNV-1">
          <mxGeometry x="490" y="1070" width="120" height="30" as="geometry" />
        </mxCell>
        <mxCell id="kPHA2BXEv4-0aPbifPxd-81" value="" style="endArrow=none;html=1;rounded=0;" edge="1" parent="WIyWlLk6GJQsqaUBKTNV-1">
          <mxGeometry width="50" height="50" relative="1" as="geometry">
            <mxPoint x="610" y="900" as="sourcePoint" />
            <mxPoint x="670" y="900" as="targetPoint" />
          </mxGeometry>
        </mxCell>
        <mxCell id="kPHA2BXEv4-0aPbifPxd-82" value="" style="endArrow=none;html=1;rounded=0;" edge="1" parent="WIyWlLk6GJQsqaUBKTNV-1">
          <mxGeometry width="50" height="50" relative="1" as="geometry">
            <mxPoint x="670" y="1140" as="sourcePoint" />
            <mxPoint x="670" y="900" as="targetPoint" />
          </mxGeometry>
        </mxCell>
        <mxCell id="kPHA2BXEv4-0aPbifPxd-84" value="" style="endArrow=none;html=1;rounded=0;" edge="1" parent="WIyWlLk6GJQsqaUBKTNV-1">
          <mxGeometry width="50" height="50" relative="1" as="geometry">
            <mxPoint x="550" y="1140" as="sourcePoint" />
            <mxPoint x="670" y="1140" as="targetPoint" />
          </mxGeometry>
        </mxCell>
        <mxCell id="kPHA2BXEv4-0aPbifPxd-88" value="" style="edgeStyle=orthogonalEdgeStyle;rounded=0;orthogonalLoop=1;jettySize=auto;html=1;" edge="1" parent="WIyWlLk6GJQsqaUBKTNV-1" source="kPHA2BXEv4-0aPbifPxd-85" target="kPHA2BXEv4-0aPbifPxd-86">
          <mxGeometry relative="1" as="geometry" />
        </mxCell>
        <mxCell id="kPHA2BXEv4-0aPbifPxd-85" value="true" style="shape=parallelogram;perimeter=parallelogramPerimeter;whiteSpace=wrap;html=1;fixedSize=1;" vertex="1" parent="WIyWlLk6GJQsqaUBKTNV-1">
          <mxGeometry x="490" y="1200" width="120" height="60" as="geometry" />
        </mxCell>
        <mxCell id="kPHA2BXEv4-0aPbifPxd-86" value="Конец" style="rounded=1;whiteSpace=wrap;html=1;arcSize=50;" vertex="1" parent="WIyWlLk6GJQsqaUBKTNV-1">
          <mxGeometry x="490" y="1300" width="120" height="30" as="geometry" />
        </mxCell>
        <mxCell id="kPHA2BXEv4-0aPbifPxd-87" value="" style="endArrow=classic;html=1;rounded=0;entryX=0.5;entryY=0;entryDx=0;entryDy=0;" edge="1" parent="WIyWlLk6GJQsqaUBKTNV-1" target="kPHA2BXEv4-0aPbifPxd-85">
          <mxGeometry width="50" height="50" relative="1" as="geometry">
            <mxPoint x="550" y="1140" as="sourcePoint" />
            <mxPoint x="600" y="1090" as="targetPoint" />
          </mxGeometry>
        </mxCell>
      </root>
    </mxGraphModel>
  </diagram>
</mxfile>
